<svg width="48" height="48" viewBox="0 0 48 48" fill="none" xmlns="http://www.w3.org/2000/svg">
<rect width="48" height="48" rx="12" fill="white"/>
<path d="M16.8691 27.6777C16.8691 27.4759 16.804 27.2969 16.6738 27.1406C16.5501 26.9844 16.3516 26.8249 16.0781 26.6621C15.8047 26.4993 15.4434 26.3236 14.9941 26.1348C14.5059 25.9395 14.0729 25.7409 13.6953 25.5391C13.3242 25.3307 13.0085 25.1029 12.748 24.8555C12.4876 24.6016 12.2923 24.3151 12.1621 23.9961C12.0319 23.6706 11.9668 23.2962 11.9668 22.873C11.9668 22.4368 12.0482 22.0299 12.2109 21.6523C12.3737 21.2747 12.6081 20.9427 12.9141 20.6562C13.2266 20.3698 13.6042 20.1452 14.0469 19.9824C14.4896 19.8197 14.9876 19.7383 15.541 19.7383C16.3158 19.7383 16.9798 19.8783 17.5332 20.1582C18.0931 20.4316 18.5195 20.8158 18.8125 21.3105C19.112 21.8053 19.2617 22.375 19.2617 23.0195H16.7617C16.7617 22.7721 16.7194 22.5475 16.6348 22.3457C16.5501 22.1439 16.4167 21.9844 16.2344 21.8672C16.0521 21.7435 15.8177 21.6816 15.5312 21.6816C15.2904 21.6816 15.082 21.7305 14.9062 21.8281C14.737 21.9258 14.6068 22.056 14.5156 22.2188C14.4245 22.375 14.3789 22.554 14.3789 22.7559C14.3789 22.9121 14.4082 23.0488 14.4668 23.166C14.5319 23.2832 14.6328 23.3971 14.7695 23.5078C14.9062 23.612 15.0885 23.7227 15.3164 23.8398C15.5508 23.9505 15.8405 24.0807 16.1855 24.2305C16.8887 24.4974 17.4714 24.7806 17.9336 25.0801C18.3958 25.373 18.7409 25.7181 18.9688 26.1152C19.1966 26.5059 19.3105 26.9941 19.3105 27.5801C19.3105 28.0423 19.2227 28.4655 19.0469 28.8496C18.8711 29.2337 18.6172 29.5658 18.2852 29.8457C17.9596 30.1191 17.5658 30.3307 17.1035 30.4805C16.6413 30.6237 16.1237 30.6953 15.5508 30.6953C14.7109 30.6953 14.0013 30.5293 13.4219 30.1973C12.849 29.8652 12.4128 29.4355 12.1133 28.9082C11.8203 28.3809 11.6738 27.8307 11.6738 27.2578H14.0762C14.0892 27.6354 14.1641 27.9349 14.3008 28.1562C14.444 28.3711 14.6296 28.5208 14.8574 28.6055C15.0853 28.6901 15.3294 28.7324 15.5898 28.7324C15.8763 28.7324 16.1139 28.6934 16.3027 28.6152C16.4915 28.5306 16.6315 28.4102 16.7227 28.2539C16.8203 28.0911 16.8691 27.8991 16.8691 27.6777ZM21.6855 22.1309V30.5H19.1855V19.9336H21.5586L21.6855 22.1309ZM24.2051 19.8555L24.1855 22.3457C24.0553 22.3197 23.9089 22.3001 23.7461 22.2871C23.5898 22.2741 23.4434 22.2676 23.3066 22.2676C23.0007 22.2676 22.737 22.3197 22.5156 22.4238C22.2943 22.528 22.1087 22.6777 21.959 22.873C21.8092 23.0684 21.6953 23.3092 21.6172 23.5957C21.5391 23.8757 21.4902 24.1947 21.4707 24.5527L20.9629 24.4648C20.9629 23.7878 21.015 23.1628 21.1191 22.5898C21.2298 22.0169 21.3893 21.5189 21.5977 21.0957C21.8125 20.666 22.0762 20.334 22.3887 20.0996C22.7012 19.8587 23.0592 19.7383 23.4629 19.7383C23.5866 19.7383 23.7201 19.7513 23.8633 19.7773C24.013 19.7969 24.127 19.8229 24.2051 19.8555ZM28.6113 19.9336V21.8379H23.3281V19.9336H28.6113ZM24.6562 17.3359H27.1465V27.4141C27.1465 27.7266 27.179 27.9642 27.2441 28.127C27.3092 28.2897 27.4036 28.4004 27.5273 28.459C27.6576 28.5176 27.8138 28.5469 27.9961 28.5469C28.1328 28.5469 28.263 28.5371 28.3867 28.5176C28.5104 28.498 28.6016 28.4785 28.6602 28.459L28.6504 30.4512C28.4616 30.5228 28.2533 30.5814 28.0254 30.627C27.7975 30.6725 27.5241 30.6953 27.2051 30.6953C26.6973 30.6953 26.2513 30.5944 25.8672 30.3926C25.4896 30.1908 25.1934 29.8652 24.9785 29.416C24.7637 28.9668 24.6562 28.3743 24.6562 27.6387V17.3359ZM33.0566 27.6777C33.0566 27.4759 32.9915 27.2969 32.8613 27.1406C32.7376 26.9844 32.5391 26.8249 32.2656 26.6621C31.9922 26.4993 31.6309 26.3236 31.1816 26.1348C30.6934 25.9395 30.2604 25.7409 29.8828 25.5391C29.5117 25.3307 29.196 25.1029 28.9355 24.8555C28.6751 24.6016 28.4798 24.3151 28.3496 23.9961C28.2194 23.6706 28.1543 23.2962 28.1543 22.873C28.1543 22.4368 28.2357 22.0299 28.3984 21.6523C28.5612 21.2747 28.7956 20.9427 29.1016 20.6562C29.4141 20.3698 29.7917 20.1452 30.2344 19.9824C30.6771 19.8197 31.1751 19.7383 31.7285 19.7383C32.5033 19.7383 33.1673 19.8783 33.7207 20.1582C34.2806 20.4316 34.707 20.8158 35 21.3105C35.2995 21.8053 35.4492 22.375 35.4492 23.0195H32.9492C32.9492 22.7721 32.9069 22.5475 32.8223 22.3457C32.7376 22.1439 32.6042 21.9844 32.4219 21.8672C32.2396 21.7435 32.0052 21.6816 31.7188 21.6816C31.4779 21.6816 31.2695 21.7305 31.0938 21.8281C30.9245 21.9258 30.7943 22.056 30.7031 22.2188C30.612 22.375 30.5664 22.554 30.5664 22.7559C30.5664 22.9121 30.5957 23.0488 30.6543 23.166C30.7194 23.2832 30.8203 23.3971 30.957 23.5078C31.0938 23.612 31.276 23.7227 31.5039 23.8398C31.7383 23.9505 32.028 24.0807 32.373 24.2305C33.0762 24.4974 33.6589 24.7806 34.1211 25.0801C34.5833 25.373 34.9284 25.7181 35.1562 26.1152C35.3841 26.5059 35.498 26.9941 35.498 27.5801C35.498 28.0423 35.4102 28.4655 35.2344 28.8496C35.0586 29.2337 34.8047 29.5658 34.4727 29.8457C34.1471 30.1191 33.7533 30.3307 33.291 30.4805C32.8288 30.6237 32.3112 30.6953 31.7383 30.6953C30.8984 30.6953 30.1888 30.5293 29.6094 30.1973C29.0365 29.8652 28.6003 29.4355 28.3008 28.9082C28.0078 28.3809 27.8613 27.8307 27.8613 27.2578H30.2637C30.2767 27.6354 30.3516 27.9349 30.4883 28.1562C30.6315 28.3711 30.8171 28.5208 31.0449 28.6055C31.2728 28.6901 31.5169 28.7324 31.7773 28.7324C32.0638 28.7324 32.3014 28.6934 32.4902 28.6152C32.679 28.5306 32.819 28.4102 32.9102 28.2539C33.0078 28.0911 33.0566 27.8991 33.0566 27.6777Z" fill="#101010"/>
</svg>
