<svg width="600" height="101" viewBox="0 0 600 101" fill="none" xmlns="http://www.w3.org/2000/svg">
<path d="M300 14.5L309.45 29.1667L298.65 36.5L307.425 38.5L326.325 42.5L330.375 24.5L333.075 15.1667L320.925 22.5L307.425 0.5H292.575L275.025 29.1667L286.5 35.8333L300 14.5ZM354 73.8333L335.775 45.1667L324.3 51.8333L337.8 73.8333H320.25V60.5L300 80.5L320.25 100.5V87.1667H345.225L354 73.8333ZM262.2 73.8333L271.65 58.5L283.125 65.8333L277.05 37.8333L258.15 42.5L249.375 44.5L260.175 51.1667L246 73.8333L254.775 87.1667H293.25V73.8333H262.2Z" fill="#289357"/>
<path d="M51.3367 59.6176C51.3367 59.0116 51.1501 58.4679 50.777 57.9866C50.4571 57.4875 49.7908 57.0241 48.7779 56.5963C47.8183 56.1684 46.3523 55.7406 44.3799 55.3128C42.4074 54.8672 39.7686 54.4037 36.4635 53.9225C32.3054 53.352 28.2272 52.7103 24.229 51.9973C20.2308 51.2665 16.6325 50.4198 13.4339 49.4572C10.2887 48.4768 7.75648 47.336 5.83735 46.0348C3.91822 44.7157 2.95866 43.1827 2.95866 41.4358C2.95866 39.7603 3.91822 38.254 5.83735 36.9171C7.80979 35.5624 10.5019 34.4127 13.9137 33.4679C17.3788 32.5053 21.4569 31.7745 26.1481 31.2754C30.8393 30.7585 35.957 30.5 41.5012 30.5C48.8578 30.5 55.3349 30.9991 60.9324 31.9973C66.5831 32.9777 70.9811 34.377 74.1264 36.1952C77.3249 37.9955 78.9242 40.1257 78.9242 42.5856H51.6566C51.6566 41.6052 51.2834 40.7406 50.5371 39.992C49.7908 39.2433 48.618 38.6551 47.0187 38.2273C45.4727 37.7995 43.4203 37.5856 40.8615 37.5856C38.5692 37.5856 36.6234 37.7638 35.0241 38.1203C33.4782 38.4768 32.3054 38.9581 31.5057 39.5642C30.7061 40.1524 30.3063 40.803 30.3063 41.516C30.3063 42.1043 30.7061 42.639 31.5057 43.1203C32.3054 43.5838 33.3982 44.0205 34.7842 44.4305C36.2236 44.8405 37.8762 45.2326 39.742 45.607C41.6611 45.9813 43.7135 46.3467 45.8992 46.7032C51.1768 47.3627 55.8413 48.1025 59.8928 48.9225C63.9977 49.7246 67.4361 50.6426 70.2082 51.6765C72.9802 52.6925 75.0593 53.8512 76.4453 55.1524C77.8847 56.4537 78.6044 57.9242 78.6044 59.5642C78.6044 61.3111 77.7514 62.8619 76.0455 64.2166C74.3929 65.5713 71.9674 66.721 68.7688 67.6658C65.5703 68.5927 61.7054 69.2968 57.1741 69.7781C52.6961 70.2594 47.6317 70.5 41.981 70.5C36.81 70.5 31.719 70.2504 26.7079 69.7513C21.7501 69.2344 17.2455 68.4501 13.194 67.3984C9.19583 66.3289 5.99728 64.9652 3.59837 63.3075C1.19946 61.6319 0 59.6444 0 57.3449H27.5075C27.5075 58.4857 27.7741 59.4483 28.3072 60.2326C28.8403 61.0169 29.6665 61.6497 30.786 62.131C31.9588 62.5945 33.4515 62.9332 35.264 63.1471C37.0765 63.3431 39.3155 63.4412 41.981 63.4412C44.4332 63.4412 46.3257 63.2718 47.6584 62.9332C49.0444 62.5766 50.004 62.1132 50.5371 61.5428C51.0702 60.9545 51.3367 60.3128 51.3367 59.6176Z" fill="black"/>
<path d="M153.259 62.746V69.9652H102.322V62.746H153.259ZM111.837 31.0348V69.9652H84.4897V31.0348H111.837ZM146.622 46.4893V53.4679H102.322V46.4893H146.622ZM153.498 31.0348V38.2807H102.322V31.0348H153.498Z" fill="black"/>
<path d="M156.345 31.0348H196.167C203.95 31.0348 210.694 31.4804 216.398 32.3717C222.102 33.2629 226.473 34.582 229.512 36.3289C232.604 38.0758 234.15 40.2326 234.15 42.7995C234.15 45.0276 233.297 46.8904 231.591 48.3877C229.938 49.885 227.593 51.1239 224.554 52.1043C221.516 53.0668 217.944 53.8601 213.839 54.484L204.963 56.2219H173.697L173.537 48.9759H195.527C198.033 48.9759 200.112 48.762 201.765 48.3342C203.417 47.9064 204.643 47.3004 205.443 46.516C206.296 45.7139 206.722 44.7602 206.722 43.6551C206.722 42.5321 206.322 41.5695 205.523 40.7674C204.723 39.9652 203.55 39.3503 202.004 38.9225C200.512 38.4947 198.566 38.2807 196.167 38.2807H183.693V69.9652H156.345V31.0348ZM207.922 69.9652L187.291 52.746L216.238 52.6925L237.268 69.5642V69.9652H207.922Z" fill="black"/>
<path d="M405.192 31.0348V69.9652H377.765V31.0348H405.192ZM433.419 31.0348V38.2807H350.337V31.0348H433.419Z" fill="black"/>
<path d="M488.403 31.0348H515.83V57.5321C515.83 60.5624 514.204 63.0401 510.952 64.9652C507.7 66.8725 503.143 68.2718 497.279 69.1631C491.414 70.0544 484.484 70.5 476.488 70.5C468.545 70.5 461.615 70.0544 455.697 69.1631C449.78 68.2718 445.142 66.8725 441.784 64.9652C438.478 63.0401 436.826 60.5624 436.826 57.5321V31.0348H464.333V57.5321C464.333 59.1364 464.76 60.3574 465.613 61.1952C466.519 62.0152 467.879 62.5677 469.691 62.8529C471.504 63.1381 473.769 63.2807 476.488 63.2807C479.26 63.2807 481.526 63.1381 483.285 62.8529C485.044 62.5677 486.323 62.0152 487.123 61.1952C487.976 60.3574 488.403 59.1364 488.403 57.5321V31.0348Z" fill="black"/>
<path d="M572.412 59.6176C572.412 59.0116 572.226 58.4679 571.853 57.9866C571.533 57.4875 570.867 57.0241 569.854 56.5963C568.894 56.1684 567.428 55.7406 565.456 55.3128C563.483 54.8672 560.844 54.4037 557.539 53.9225C553.381 53.352 549.303 52.7103 545.305 51.9973C541.307 51.2665 537.708 50.4198 534.51 49.4572C531.364 48.4768 528.832 47.336 526.913 46.0348C524.994 44.7157 524.034 43.1827 524.034 41.4358C524.034 39.7603 524.994 38.254 526.913 36.9171C528.886 35.5624 531.578 34.4127 534.989 33.4679C538.455 32.5053 542.533 31.7745 547.224 31.2754C551.915 30.7585 557.033 30.5 562.577 30.5C569.934 30.5 576.411 30.9991 582.008 31.9973C587.659 32.9777 592.057 34.377 595.202 36.1952C598.401 37.9955 600 40.1257 600 42.5856H572.732C572.732 41.6052 572.359 40.7406 571.613 39.992C570.867 39.2433 569.694 38.6551 568.094 38.2273C566.548 37.7995 564.496 37.5856 561.937 37.5856C559.645 37.5856 557.699 37.7638 556.1 38.1203C554.554 38.4768 553.381 38.9581 552.581 39.5642C551.782 40.1524 551.382 40.803 551.382 41.516C551.382 42.1043 551.782 42.639 552.581 43.1203C553.381 43.5838 554.474 44.0205 555.86 44.4305C557.299 44.8405 558.952 45.2326 560.818 45.607C562.737 45.9813 564.789 46.3467 566.975 46.7032C572.253 47.3627 576.917 48.1025 580.969 48.9225C585.073 49.7246 588.512 50.6426 591.284 51.6765C594.056 52.6925 596.135 53.8512 597.521 55.1524C598.96 56.4537 599.68 57.9242 599.68 59.5642C599.68 61.3111 598.827 62.8619 597.121 64.2166C595.469 65.5713 593.043 66.721 589.845 67.6658C586.646 68.5927 582.781 69.2968 578.25 69.7781C573.772 70.2594 568.708 70.5 563.057 70.5C557.886 70.5 552.795 70.2504 547.784 69.7513C542.826 69.2344 538.321 68.4501 534.27 67.3984C530.272 66.3289 527.073 64.9652 524.674 63.3075C522.275 61.6319 521.076 59.6444 521.076 57.3449H548.583C548.583 58.4857 548.85 59.4483 549.383 60.2326C549.916 61.0169 550.742 61.6497 551.862 62.131C553.035 62.5945 554.527 62.9332 556.34 63.1471C558.152 63.3431 560.391 63.4412 563.057 63.4412C565.509 63.4412 567.401 63.2718 568.734 62.9332C570.12 62.5766 571.08 62.1132 571.613 61.5428C572.146 60.9545 572.412 60.3128 572.412 59.6176Z" fill="black"/>
</svg>
