<svg width="34" height="19" viewBox="0 0 34 19" fill="none" xmlns="http://www.w3.org/2000/svg">
<path d="M7.99861 14.1537C7.99861 13.8787 7.90989 13.6347 7.73244 13.4218C7.56386 13.2088 7.29324 12.9914 6.9206 12.7696C6.54795 12.5478 6.05552 12.3083 5.44332 12.0509C4.77787 11.7848 4.18785 11.5142 3.67324 11.2391C3.1675 10.9552 2.73718 10.6446 2.38228 10.3075C2.02738 9.96146 1.7612 9.57107 1.58375 9.13631C1.4063 8.69269 1.31758 8.18251 1.31758 7.6058C1.31758 7.01134 1.42848 6.4568 1.6503 5.94219C1.87211 5.42758 2.19152 4.97508 2.60853 4.58469C3.03442 4.1943 3.54902 3.88819 4.15236 3.66638C4.75569 3.44457 5.43444 3.33366 6.18861 3.33366C7.24444 3.33366 8.14945 3.52442 8.90361 3.90594C9.66665 4.27859 10.2478 4.80207 10.6471 5.47638C11.0552 6.1507 11.2593 6.92705 11.2593 7.80543H7.85221C7.85221 7.46827 7.79454 7.16217 7.6792 6.88712C7.56386 6.61207 7.38197 6.39469 7.13354 6.23499C6.88511 6.06641 6.56569 5.98212 6.1753 5.98212C5.84702 5.98212 5.56309 6.04866 5.32354 6.18175C5.09285 6.31484 4.9154 6.49229 4.79118 6.7141C4.66697 6.92705 4.60486 7.17104 4.60486 7.44609C4.60486 7.65903 4.64478 7.84536 4.72464 8.00506C4.81336 8.16477 4.95089 8.32004 5.13721 8.47087C5.32354 8.61283 5.57197 8.76367 5.88251 8.92337C6.20192 9.07421 6.59675 9.25166 7.06699 9.45573C8.02523 9.8195 8.81932 10.2055 9.44928 10.6136C10.0792 11.0129 10.5495 11.4831 10.86 12.0243C11.1706 12.5567 11.3258 13.2221 11.3258 14.0207C11.3258 14.6506 11.206 15.2273 10.9665 15.7508C10.7269 16.2743 10.3809 16.7268 9.92839 17.1083C9.48477 17.481 8.94798 17.7693 8.31802 17.9734C7.68807 18.1686 6.9827 18.2662 6.20192 18.2662C5.05736 18.2662 4.09025 18.0399 3.30059 17.5874C2.51981 17.1349 1.92535 16.5493 1.51721 15.8307C1.11794 15.112 0.91831 14.3623 0.91831 13.5815H4.19228C4.21003 14.0961 4.31206 14.5042 4.49839 14.8059C4.69358 15.0987 4.94645 15.3027 5.25699 15.4181C5.56753 15.5334 5.90025 15.5911 6.25515 15.5911C6.64555 15.5911 6.9694 15.5379 7.2267 15.4314C7.484 15.3161 7.67476 15.1519 7.79898 14.939C7.93207 14.7172 7.99861 14.4554 7.99861 14.1537ZM14.5625 6.59433V18H11.1555V3.59984H14.3895L14.5625 6.59433ZM17.9962 3.49337L17.9696 6.88712C17.7921 6.85163 17.5925 6.82501 17.3707 6.80727C17.1578 6.78952 16.9581 6.78065 16.7718 6.78065C16.3548 6.78065 15.9955 6.85163 15.6938 6.99359C15.3921 7.13555 15.1392 7.33962 14.9352 7.6058C14.7311 7.87197 14.5758 8.20026 14.4694 8.59065C14.3629 8.97217 14.2964 9.40693 14.2697 9.89492L13.5777 9.77514C13.5777 8.85239 13.6487 8.00063 13.7906 7.21984C13.9415 6.43906 14.1588 5.7603 14.4428 5.18359C14.7355 4.598 15.0949 4.1455 15.5208 3.82609C15.9467 3.4978 16.4346 3.33366 16.9847 3.33366C17.1533 3.33366 17.3352 3.3514 17.5304 3.38689C17.7345 3.41351 17.8897 3.449 17.9962 3.49337ZM24.0012 3.59984V6.19506H16.8011V3.59984H24.0012ZM18.6111 0.0596851H22.0048V13.7944C22.0048 14.2203 22.0492 14.5441 22.1379 14.766C22.2266 14.9878 22.3553 15.1386 22.5239 15.2185C22.7013 15.2983 22.9143 15.3382 23.1627 15.3382C23.349 15.3382 23.5265 15.3249 23.6951 15.2983C23.8636 15.2717 23.9879 15.2451 24.0677 15.2185L24.0544 17.9335C23.7971 18.0311 23.5132 18.1109 23.2026 18.173C22.8921 18.2351 22.5194 18.2662 22.0847 18.2662C21.3926 18.2662 20.7849 18.1287 20.2614 17.8536C19.7468 17.5786 19.3431 17.1349 19.0503 16.5227C18.7575 15.9105 18.6111 15.1031 18.6111 14.1005V0.0596851ZM30.0593 14.1537C30.0593 13.8787 29.9706 13.6347 29.7932 13.4218C29.6246 13.2088 29.354 12.9914 28.9813 12.7696C28.6087 12.5478 28.1163 12.3083 27.504 12.0509C26.8386 11.7848 26.2486 11.5142 25.734 11.2391C25.2282 10.9552 24.7979 10.6446 24.443 10.3075C24.0881 9.96146 23.8219 9.57107 23.6445 9.13631C23.467 8.69269 23.3783 8.18251 23.3783 7.6058C23.3783 7.01134 23.4892 6.4568 23.711 5.94219C23.9328 5.42758 24.2523 4.97508 24.6693 4.58469C25.0951 4.1943 25.6098 3.88819 26.2131 3.66638C26.8164 3.44457 27.4952 3.33366 28.2493 3.33366C29.3052 3.33366 30.2102 3.52442 30.9643 3.90594C31.7274 4.27859 32.3085 4.80207 32.7078 5.47638C33.1159 6.1507 33.32 6.92705 33.32 7.80543H29.9129C29.9129 7.46827 29.8553 7.16217 29.7399 6.88712C29.6246 6.61207 29.4427 6.39469 29.1943 6.23499C28.9458 6.06641 28.6264 5.98212 28.236 5.98212C27.9077 5.98212 27.6238 6.04866 27.3843 6.18175C27.1536 6.31484 26.9761 6.49229 26.8519 6.7141C26.7277 6.92705 26.6656 7.17104 26.6656 7.44609C26.6656 7.65903 26.7055 7.84536 26.7854 8.00506C26.8741 8.16477 27.0116 8.32004 27.1979 8.47087C27.3843 8.61283 27.6327 8.76367 27.9432 8.92337C28.2627 9.07421 28.6575 9.25166 29.1277 9.45573C30.086 9.8195 30.8801 10.2055 31.51 10.6136C32.14 11.0129 32.6102 11.4831 32.9207 12.0243C33.2313 12.5567 33.3866 13.2221 33.3866 14.0207C33.3866 14.6506 33.2668 15.2273 33.0272 15.7508C32.7877 16.2743 32.4416 16.7268 31.9891 17.1083C31.5455 17.481 31.0087 17.7693 30.3788 17.9734C29.7488 18.1686 29.0434 18.2662 28.2627 18.2662C27.1181 18.2662 26.151 18.0399 25.3613 17.5874C24.5805 17.1349 23.9861 16.5493 23.5779 15.8307C23.1787 15.112 22.979 14.3623 22.979 13.5815H26.253C26.2708 14.0961 26.3728 14.5042 26.5591 14.8059C26.7543 15.0987 27.0072 15.3027 27.3177 15.4181C27.6283 15.5334 27.961 15.5911 28.3159 15.5911C28.7063 15.5911 29.0301 15.5379 29.2874 15.4314C29.5447 15.3161 29.7355 15.1519 29.8597 14.939C29.9928 14.7172 30.0593 14.4554 30.0593 14.1537Z" fill="#101010"/>
</svg>
