<svg width="30" height="30" viewBox="0 0 30 30" fill="none" xmlns="http://www.w3.org/2000/svg">
<path d="M13.5 27C13.5 27.8284 14.1716 28.5 15 28.5C15.8284 28.5 16.5 27.8284 16.5 27L13.5 27ZM16.0607 5.93934C15.4749 5.35355 14.5251 5.35355 13.9393 5.93934L4.3934 15.4853C3.80761 16.0711 3.80761 17.0208 4.3934 17.6066C4.97919 18.1924 5.92893 18.1924 6.51472 17.6066L15 9.12132L23.4853 17.6066C24.0711 18.1924 25.0208 18.1924 25.6066 17.6066C26.1924 17.0208 26.1924 16.0711 25.6066 15.4853L16.0607 5.93934ZM16.5 27L16.5 7L13.5 7L13.5 27L16.5 27Z" fill="#7C7C7C"/>
</svg>
