<svg width="30" height="30" viewBox="0 0 30 30" fill="none" xmlns="http://www.w3.org/2000/svg">
<path d="M16.5 5C16.5 4.17157 15.8284 3.5 15 3.5C14.1716 3.5 13.5 4.17157 13.5 5L16.5 5ZM13.9393 26.0607C14.5251 26.6464 15.4749 26.6464 16.0607 26.0607L25.6066 16.5147C26.1924 15.9289 26.1924 14.9792 25.6066 14.3934C25.0208 13.8076 24.0711 13.8076 23.4853 14.3934L15 22.8787L6.51472 14.3934C5.92893 13.8076 4.97919 13.8076 4.3934 14.3934C3.80761 14.9792 3.80761 15.9289 4.3934 16.5147L13.9393 26.0607ZM13.5 5L13.5 25L16.5 25L16.5 5L13.5 5Z" fill="#101010"/>
</svg>
